PathFileType	4	(X/Y/Z)	C:\Users\Basilio\Documents\Thesis Gigler\squatting_fais\c3dfiles\040\SLS_pre_front3\markers_experimental.trc
DataRate	CameraRate	NumFrames	NumMarkers	Units	OrigDataRate	OrigDataStartFrame	OrigNumFrames
200.000000	200.000000	4	62	mm	200.000000	279	1116
Frame#	Time	FHD			LBHD			RBHD			C7			T10			CLAV			LSHO			LUUPA			LMUPA			LDUPA			LLEP			LMEP			LRAD			LUL			LRFIN			RSHO			RUPA1			RMUPA			RDUPA			RLEP			RMEP			RRAD			RUL			RUFIN			LASI			RASI			USACR			LSACR			RSACR			LTHI1			LTHI2			LTHI3			LTHI4			LLFC			LMFC			LTIB1			LTIB2			LTIB3			LTIB4			LLMAL			LMMAL			LHEE			LMT1			LMT2			LMT5			RTHI			RTHI2			RTHI3			RTHI4			RLFC			RMFC			RTIB1			RTIB2			RTIB3			RTIB4			RLMAL			RMMAL			RHEE			RMT1			RMT2			RMT5			*61			
		X1	Y1	Z1	X2	Y2	Z2	X3	Y3	Z3	X4	Y4	Z4	X5	Y5	Z5	X6	Y6	Z6	X7	Y7	Z7	X8	Y8	Z8	X9	Y9	Z9	X10	Y10	Z10	X11	Y11	Z11	X12	Y12	Z12	X13	Y13	Z13	X14	Y14	Z14	X15	Y15	Z15	X16	Y16	Z16	X17	Y17	Z17	X18	Y18	Z18	X19	Y19	Z19	X20	Y20	Z20	X21	Y21	Z21	X22	Y22	Z22	X23	Y23	Z23	X24	Y24	Z24	X25	Y25	Z25	X26	Y26	Z26	X27	Y27	Z27	X28	Y28	Z28	X29	Y29	Z29	X30	Y30	Z30	X31	Y31	Z31	X32	Y32	Z32	X33	Y33	Z33	X34	Y34	Z34	X35	Y35	Z35	X36	Y36	Z36	X37	Y37	Z37	X38	Y38	Z38	X39	Y39	Z39	X40	Y40	Z40	X41	Y41	Z41	X42	Y42	Z42	X43	Y43	Z43	X44	Y44	Z44	X45	Y45	Z45	X46	Y46	Z46	X47	Y47	Z47	X48	Y48	Z48	X49	Y49	Z49	X50	Y50	Z50	X51	Y51	Z51	X52	Y52	Z52	X53	Y53	Z53	X54	Y54	Z54	X55	Y55	Z55	X56	Y56	Z56	X57	Y57	Z57	X58	Y58	Z58	X59	Y59	Z59	X60	Y60	Z60	X61	Y61	Z61	X62	Y62	Z62	

280	1.395	-218.4485778808594	1720.322265625	-1134.347778320313	-342.4079284667969	1668.758056640625	-1175.159545898438	-394.8080444335939	1631.28759765625	-1042.92626953125	-407.9488525390626	1510.300048828125	-1087.928344726563	-457.0483703613282	1198.409057617188	-1071.921264648438	-279.1621398925782	1440.904541015625	-1094.971923828125	-339.5009460449219	1502.034790039063	-1238.412109375	-200.7770233154297	1404.224609375	-1334.5625	-162.0420227050782	1415.57275390625	-1304.8623046875	-137.8220672607422	1376.236328125	-1344.64306640625	-85.62123107910158	1336.761474609375	-1350.141845703125	-104.4355087280274	1284.431640625	-1310.987915039063	149.1388702392578	1346.163940429688	-1171.443237304688	178.1771087646485	1337.662719726563	-1240.909790039063	232.6841125488282	1361.97509765625	-1143.80078125	-310.5227050781251	1483.154907226563	-946.9711914062502	-164.3135528564453	1384.216064453125	-880.6524047851565	-133.2070465087891	1401.17724609375	-913.825866699219	-100.3773727416992	1356.147094726563	-888.4847412109377	-42.99328231811524	1335.192993164063	-905.703552246094	-68.02259826660158	1280.10498046875	-951.8106689453127	203.2748413085938	1345.131713867188	-1070.464233398438	219.0736999511719	1313.319458007813	-1001.442443847656	298.3482666015626	1343.81005859375	-1076.68212890625	-287.8676452636719	1015.768005371094	-1174.971923828125	-278.8143920898438	1036.295532226563	-950.3394165039065	-469.873016357422	1053.394409179688	-1051.854125976563	-475.9545898437501	1020.467956542969	-1077.082763671875	-474.6126403808595	1023.991821289063	-1020.921691894531	-318.1415100097657	742.5485839843751	-1214.986083984375	-253.5713653564454	687.3408813476564	-1218.75830078125	-211.7767028808594	707.3912353515626	-1224.9072265625	-251.9906921386719	630.8988037109376	-1199.042114257813	-190.0569610595703	519.2941284179689	-1181.699462890625	-190.5814514160157	514.0388183593751	-1052.989013671875	-201.2567596435547	301.4592590332032	-1115.102661132813	-276.7009582519532	282.1040649414063	-1153.981201171875	-238.1755065917969	264.9477539062501	-1140.157958984375	-257.4392395019532	192.3449859619141	-1093.452514648438	-349.5344238281251	126.6086578369141	-1101.073120117188	-312.3517761230469	138.1304016113282	-1019.549255371094	-412.4272460937501	96.30169677734378	-1046.65625	-199.6726379394532	56.21044158935548	-1049.410034179688	-204.0953979492188	54.69787216186525	-1096.308349609375	-261.0046997070313	39.82559204101563	-1137.17041015625	-223.7800750732422	792.2983398437502	-870.8316650390627	-168.7681579589844	757.8906860351564	-884.134948730469	-141.420150756836	774.9278564453127	-894.1204223632815	-158.7634735107422	676.6829223632814	-891.9163208007815	-88.17093658447267	562.3507080078126	-906.7522583007815	-94.92059326171876	554.7495117187501	-1043.108642578125	46.57021713256837	426.876678466797	-941.0242919921877	26.26747703552247	324.1716613769532	-912.3474731445315	66.25962829589845	343.2008056640626	-926.2194824218752	101.4036865234375	312.0469055175782	-962.382995605469	116.7623596191407	188.2613525390625	-939.1528930664065	119.2930908203125	207.3653106689454	-1026.460693359375	79.60897827148439	116.5583114624024	-988.7504882812502	277.0038452148438	212.3346557617188	-1019.999694824219	274.7658081054688	216.1768188476563	-980.205261230469	256.1084899902344	175.9589233398438	-925.3589477539065	nan	nan	nan	
281	1.4	-217.157943725586	1718.576049804688	-1134.064208984375	-341.8539428710938	1667.101806640625	-1175.01953125	-394.8122558593751	1629.97412109375	-1042.866333007813	-407.8250122070314	1508.941040039063	-1087.947387695313	-457.2447204589845	1197.159301757813	-1072.02001953125	-279.0729675292969	1439.719360351563	-1095.04345703125	-339.5989074707032	1500.81982421875	-1238.299072265625	-200.5232696533204	1403.416870117188	-1334.597290039063	-162.0209655761719	1414.89892578125	-1304.819213867188	-137.6021728515625	1375.498046875	-1344.608520507813	-85.50660705566408	1336.08056640625	-1350.093139648438	-104.2238845825196	1283.675659179688	-1311.029541015625	149.4073944091797	1345.386474609375	-1171.681518554688	178.9530334472657	1336.7685546875	-1241.160034179688	233.252182006836	1361.157104492188	-1144.694946289063	-310.6971435546876	1481.705688476563	-946.9715576171877	-164.1808471679688	1382.58642578125	-880.584899902344	-133.1535797119141	1400.022583007813	-913.6367797851565	-99.70594024658206	1355.17333984375	-888.596374511719	-42.76996612548829	1333.303100585938	-905.3401489257815	-67.57864379882814	1279.452270507813	-952.0179443359377	203.356674194336	1344.43408203125	-1070.446166992188	219.4773864746094	1312.764282226563	-1001.636169433594	299.6833496093751	1343.49755859375	-1077.776000976563	-288.2602844238282	1014.592712402344	-1174.799072265625	-279.2373352050782	1034.942749023438	-950.2083129882815	-470.5931091308595	1051.75244140625	-1051.849243164063	-477.4866333007814	1019.302978515625	-1077.460815429688	-475.1262817382814	1022.745666503906	-1020.823669433594	-317.6369018554688	741.2998657226564	-1214.839721679688	-252.9232788085938	686.2460327148439	-1218.716918945313	-211.1831665039063	706.5975341796876	-1225.037963867188	-251.0443878173829	629.9464111328126	-1199.002807617188	-188.107421875	518.2796020507814	-1181.337158203125	-189.4184112548828	513.3521728515626	-1053.082763671875	-200.1949920654297	301.1542053222657	-1115.154663085938	-275.9069519042969	281.6910095214844	-1153.860473632813	-237.398666381836	264.5802307128907	-1140.070068359375	-257.1133117675782	191.8801422119141	-1093.2763671875	-349.3694458007813	126.4520645141602	-1101.01416015625	-312.2770996093751	138.1258850097657	-1019.475402832031	-412.4613342285157	96.36427307128909	-1046.555297851563	-199.2718811035157	56.15818023681642	-1049.50439453125	-204.1037139892579	54.71375656127931	-1096.2724609375	-260.9645385742188	39.83261871337891	-1137.042358398438	-224.0331115722657	791.2613525390627	-870.679138183594	-169.0825347900391	757.5277099609376	-884.5991821289065	-142.7651977539063	773.4443359375002	-894.6177368164065	-159.1909790039063	675.6236572265626	-891.8199462890627	-88.30338287353517	561.3079833984376	-906.544128417969	-96.89905548095706	551.8218383789064	-1042.243408203125	46.67779541015626	426.6155090332032	-940.8244628906252	26.64911460876466	323.5307617187501	-912.2568359375002	66.07813262939455	342.2391357421876	-926.7017822265627	101.3983230590821	311.6515197753907	-962.0368652343752	117.2206039428711	187.5593872070313	-939.1809082031252	119.5190811157227	206.7453308105469	-1026.285034179688	80.13279724121095	115.4013671875	-988.7544555664065	278.2111816406251	212.3646240234376	-1020.092224121094	275.5239257812501	215.7730255126954	-980.3883056640627	256.6879882812501	175.6013641357422	-925.2689208984377	nan	nan	nan	
282	1.405	-218.4096984863282	1717.908203125	-1134.200073242188	-341.9450073242188	1665.850830078125	-1175.011108398438	-394.6575622558595	1628.300537109375	-1042.910278320313	-407.7727355957032	1507.667114257813	-1087.892456054688	-457.8820190429689	1195.569946289063	-1072.1923828125	-278.9266662597657	1438.206787109375	-1095.072387695313	-339.6558837890626	1499.76806640625	-1238.354370117188	-200.4628295898438	1402.579833984375	-1334.572875976563	-162.0314178466797	1414.189331054688	-1304.656372070313	-137.3994598388672	1374.901489257813	-1344.61474609375	-85.23401641845705	1335.448608398438	-1350.104370117188	-103.8114624023438	1282.876708984375	-1311.062255859375	149.8735809326172	1344.504638671875	-1171.961181640625	179.3128356933594	1336.010864257813	-1241.411987304688	233.2864379882813	1360.849487304688	-1144.46044921875	-310.1789245605469	1480.478271484375	-947.150329589844	-163.9254455566407	1381.609985351563	-880.843200683594	-133.0369110107422	1398.707641601563	-913.7006835937502	-99.33569335937503	1354.302001953125	-888.7548828125002	-42.42929077148438	1332.26025390625	-905.6463623046877	-67.47125244140626	1278.52294921875	-951.754577636719	203.7152404785157	1343.893676757813	-1070.755981445313	219.8414001464844	1312.304321289063	-1001.794494628906	299.2476806640626	1342.881225585938	-1076.999755859375	-288.6485290527344	1013.087524414063	-1174.57666015625	-279.5412292480469	1034.170288085938	-950.2070922851565	-470.9788513183595	1050.416381835938	-1051.944091796875	-478.015594482422	1017.962585449219	-1077.54150390625	-475.706756591797	1021.551818847656	-1020.894470214844	-317.2301940917969	740.0657958984376	-1214.7802734375	-252.0689239501954	685.0004272460939	-1218.687133789063	-210.6017761230469	705.7850341796876	-1224.964233398438	-250.2911224365235	629.0919799804689	-1198.931884765625	-186.8325347900391	517.6203002929689	-1181.306762695313	-188.5497283935547	512.8371582031251	-1053.440551757813	-199.4207000732422	300.6399536132813	-1114.98974609375	-277.9113159179688	281.9052124023438	-1152.675537109375	-239.0884552001954	263.5173339843751	-1138.68994140625	-256.6818847656251	191.3019256591797	-1093.121459960938	-349.3498840332032	126.6207351684571	-1100.916137695313	-312.1093444824219	138.2321472167969	-1019.472961425781	-412.3761291503907	96.18450164794925	-1046.5390625	-199.2881927490235	56.13743972778322	-1049.479125976563	-204.1339263916016	54.72368621826173	-1096.24560546875	-260.8353271484376	39.78191375732423	-1137.021728515625	-224.5519409179688	790.326599121094	-870.507751464844	-169.3988800048828	756.1794433593751	-883.9165649414065	-142.3447875976563	772.703552246094	-892.8411254882815	-159.0193939208985	674.3937988281251	-891.6873168945315	-88.23828125000001	560.5156860351564	-906.4249267578127	-93.72010040283205	551.7942504882814	-1041.8623046875	46.82493209838868	425.4556884765626	-940.7178955078127	26.87616920471192	322.8628845214844	-912.0219726562502	66.17733764648439	341.7695007324219	-926.4317016601565	101.8196258544922	310.8820190429688	-961.997497558594	117.6163482666016	186.9429321289063	-938.875427246094	119.8614349365235	206.2306823730469	-1026.106811523438	80.76705932617189	114.5639419555664	-988.5996704101565	278.0818786621094	211.6406555175782	-1020.208984375	275.7373962402344	215.4306640625001	-980.3835449218752	257.2506713867188	174.9238739013672	-925.2507324218752	nan	nan	nan	
283	1.41	-217.8990631103516	1716.227294921875	-1134.184936523438	-341.8369140625001	1664.514892578125	-1174.957763671875	-394.5526733398439	1627.067749023438	-1042.859008789063	-407.5825805664064	1506.229125976563	-1087.886840820313	-457.762664794922	1194.609375	-1072.218627929688	-278.8532409667969	1436.884643554688	-1095.125	-339.6448974609376	1498.495239257813	-1238.314331054688	-200.4019622802735	1401.73876953125	-1334.443969726563	-161.8521728515625	1412.9951171875	-1304.477661132813	-137.1836853027344	1374.206420898438	-1344.651611328125	-84.8093719482422	1334.825073242188	-1350.144653320313	-103.3713607788086	1282.0458984375	-1311.186157226563	150.4262084960938	1343.23388671875	-1172.176635742188	179.4854278564453	1335.34423828125	-1241.436889648438	233.4405059814454	1360.5166015625	-1144.729858398438	-310.1831054687501	1479.24267578125	-947.227722167969	-163.8217010498047	1380.166015625	-880.8247680664065	-132.8221130371094	1397.72900390625	-913.7190551757815	-99.18296813964847	1352.845947265625	-889.0360107421877	-42.12589645385743	1331.830810546875	-906.0772094726565	-67.28768920898439	1277.053344726563	-952.1157836914065	204.160873413086	1343.355712890625	-1071.1708984375	219.9740447998047	1311.788208007813	-1002.10107421875	299.6600341796876	1342.58251953125	-1077.123779296875	-289.0146179199219	1011.822021484375	-1174.524291992188	-280.3286437988282	1032.373413085938	-949.9067993164065	-471.4376525878907	1049.093139648438	-1051.981323242188	-478.6425170898439	1016.66748046875	-1077.69091796875	-476.328338623047	1020.212097167969	-1020.907409667969	-316.7899475097657	738.4842529296876	-1214.769653320313	-251.4625396728516	683.9154663085939	-1218.713012695313	-209.8053131103516	704.7174682617189	-1225.113891601563	-249.2501983642579	627.7004394531251	-1198.980102539063	-185.4736633300782	516.9033813476564	-1181.272827148438	-187.3211669921875	512.2471923828126	-1053.644165039063	-198.5939178466797	300.1754455566407	-1115.0654296875	-277.1004028320313	281.5323486328126	-1152.75927734375	-240.2132720947266	263.3520812988282	-1138.885009765625	-256.4970092773438	191.0562286376953	-1092.898559570313	-349.0814208984376	126.3903350830078	-1100.947998046875	-312.0451965332032	138.1900024414063	-1019.436157226563	-412.3404541015626	96.21524810791018	-1046.567260742188	-199.264389038086	56.06142044067384	-1049.46240234375	-204.1031188964844	54.73225784301759	-1096.203247070313	-260.8668212890626	39.8143653869629	-1136.994018554688	-225.1469726562501	788.9417114257815	-870.197204589844	-169.472640991211	754.8085327148439	-883.7500000000002	-142.9378814697266	771.6187744140627	-892.8479614257815	-159.3167114257813	673.4611206054689	-891.6294555664065	-88.31468200683595	559.6839599609376	-906.312194824219	-93.8383255004883	550.9208374023439	-1041.589477539063	47.04022598266602	424.8609313964845	-940.5262451171877	26.86338233947755	322.1985168457032	-911.7822875976565	67.03132629394533	341.2244262695313	-925.6625976562502	102.3942489624024	310.3016662597657	-961.953308105469	118.0505447387696	186.516098022461	-938.6353759765627	120.1943588256836	205.5944213867188	-1025.728149414063	81.14337158203126	113.9545516967774	-988.1272583007815	278.4189758300782	211.2447662353516	-1020.217712402344	276.0606384277344	215.1372680664063	-980.3566894531252	257.7367553710938	174.6030578613282	-925.3062744140627	nan	nan	nan	
